{
  "accessors": [
    {
      "bufferView": 2,
      "componentType": 5126,
      "count": 8823,
      "max": [
        4.9166135787963867,
        2.298689603805542,
        12.381369590759277
      ],
      "min": [
        -4.9166135787963867,
        -2.298689603805542,
        0
      ],
      "type": "VEC3"
    },
    {
      "bufferView": 2,
      "byteOffset": 105876,
      "componentType": 5126,
      "count": 8823,
      "max": [
        0.99999886751174927,
        0.99999350309371948,
        1
      ],
      "min": [
        -0.99999332427978516,
        -0.99999839067459106,
        -0.99999600648880005
      ],
      "type": "VEC3"
    },
    {
      "bufferView": 3,
      "componentType": 5126,
      "count": 8823,
      "max": [
        0.99999994039535522,
        0.99979645013809204,
        0.99999880790710449,
        1
      ],
      "min": [
        -0.99996840953826904,
        -0.99999815225601196,
        -0.99999839067459106,
        1
      ],
      "type": "VEC4"
    },
    {
      "bufferView": 1,
      "componentType": 5126,
      "count": 8823,
      "max": [
        0.92887300252914429,
        0.99000000953674316
      ],
      "min": [
        0.0099999997764825821,
        0.0099999997764825821
      ],
      "type": "VEC2"
    },
    {
      "bufferView": 1,
      "byteOffset": 70584,
      "componentType": 5126,
      "count": 8823,
      "max": [
        0.92887300252914429,
        0.99000000953674316
      ],
      "min": [
        0.0099999997764825821,
        0.0099999997764825821
      ],
      "type": "VEC2"
    },
    {
      "bufferView": 1,
      "byteOffset": 141168,
      "componentType": 5126,
      "count": 8823,
      "max": [
        0.92887300252914429,
        0.99000000953674316
      ],
      "min": [
        0.0099999997764825821,
        0.0099999997764825821
      ],
      "type": "VEC2"
    },
    {
      "bufferView": 0,
      "componentType": 5125,
      "count": 49548,
      "max": [
        8822
      ],
      "min": [
        0
      ],
      "type": "SCALAR"
    },
    {
      "bufferView": 2,
      "byteOffset": 211752,
      "componentType": 5126,
      "count": 194,
      "max": [
        4.6884541511535645,
        1.9442836046218872,
        10.523039817810059
      ],
      "min": [
        -4.7078518867492676,
        -2.0433297157287598,
        0.069653108716011047
      ],
      "type": "VEC3"
    },
    {
      "bufferView": 2,
      "byteOffset": 214080,
      "componentType": 5126,
      "count": 194,
      "max": [
        0.99999886751174927,
        0.12365247309207916,
        0.046818729490041733
      ],
      "min": [
        -1,
        -0.15094360709190369,
        -0.99999499320983887
      ],
      "type": "VEC3"
    },
    {
      "bufferView": 3,
      "byteOffset": 141168,
      "componentType": 5126,
      "count": 194,
      "max": [
        0.15074363350868225,
        0.99990153312683105,
        0.092761896550655365,
        1
      ],
      "min": [
        -0.12371606379747391,
        -0.99998646974563599,
        -0.051074936985969543,
        1
      ],
      "type": "VEC4"
    },
    {
      "bufferView": 1,
      "byteOffset": 211752,
      "componentType": 5126,
      "count": 194,
      "max": [
        0.96819698810577393,
        0.99000000953674316
      ],
      "min": [
        0.0099999997764825821,
        0.0099999997764825821
      ],
      "type": "VEC2"
    },
    {
      "bufferView": 1,
      "byteOffset": 213304,
      "componentType": 5126,
      "count": 194,
      "max": [
        0.96819698810577393,
        0.99000000953674316
      ],
      "min": [
        0.0099999997764825821,
        0.0099999997764825821
      ],
      "type": "VEC2"
    },
    {
      "bufferView": 1,
      "byteOffset": 214856,
      "componentType": 5126,
      "count": 194,
      "max": [
        0.96819698810577393,
        0.99000000953674316
      ],
      "min": [
        0.0099999997764825821,
        0.0099999997764825821
      ],
      "type": "VEC2"
    },
    {
      "bufferView": 0,
      "byteOffset": 198192,
      "componentType": 5125,
      "count": 672,
      "max": [
        193
      ],
      "min": [
        0
      ],
      "type": "SCALAR"
    }
  ],
  "asset": {
    "extras": {
      "author": "Andrei.Dragomir (https://sketchfab.com/Andrei.Dragomir)",
      "license": "CC-BY-NC-4.0 (http://creativecommons.org/licenses/by-nc/4.0/)",
      "source": "https://sketchfab.com/3d-models/large-medieval-wall-modular-60e7830780aa4f10b688861d01dae1cf",
      "title": "Large Medieval Wall - modular"
    },
    "generator": "Sketchfab-9.94.0",
    "version": "2.0"
  },
  "bufferViews": [
    {
      "buffer": 0,
      "byteLength": 200880,
      "byteOffset": 0,
      "name": "floatBufferViews",
      "target": 34963
    },
    {
      "buffer": 0,
      "byteLength": 216408,
      "byteOffset": 200880,
      "byteStride": 8,
      "name": "floatBufferViews",
      "target": 34962
    },
    {
      "buffer": 0,
      "byteLength": 216408,
      "byteOffset": 417288,
      "byteStride": 12,
      "name": "floatBufferViews",
      "target": 34962
    },
    {
      "buffer": 0,
      "byteLength": 144272,
      "byteOffset": 633696,
      "byteStride": 16,
      "name": "floatBufferViews",
      "target": 34962
    }
  ],
  "buffers": [
    {
      "byteLength": 777968,
      "uri": "scene.bin"
    }
  ],
  "images": [
    {
      "uri": "textures/wall_large_baseColor.png"
    },
    {
      "uri": "textures/wall_large_metallicRoughness.png"
    },
    {
      "uri": "textures/wall_large_normal.png"
    },
    {
      "uri": "textures/wall_large_hide_baseColor.png"
    },
    {
      "uri": "textures/wall_large_hide_metallicRoughness.png"
    },
    {
      "uri": "textures/wall_large_hide_normal.png"
    }
  ],
  "materials": [
    {
      "doubleSided": true,
      "emissiveFactor": [
        0,
        0,
        0
      ],
      "name": "wall_large",
      "normalTexture": {
        "index": 2,
        "scale": 1,
        "texCoord": 0
      },
      "occlusionTexture": {
        "index": 1,
        "strength": 0.20000000000000001,
        "texCoord": 0
      },
      "pbrMetallicRoughness": {
        "baseColorFactor": [
          1,
          1,
          1,
          1
        ],
        "baseColorTexture": {
          "index": 0,
          "texCoord": 0
        },
        "metallicFactor": 0,
        "metallicRoughnessTexture": {
          "index": 1,
          "texCoord": 0
        },
        "roughnessFactor": 1
      }
    },
    {
      "doubleSided": true,
      "emissiveFactor": [
        0,
        0,
        0
      ],
      "name": "wall_large_hide",
      "normalTexture": {
        "index": 5,
        "scale": 1,
        "texCoord": 0
      },
      "occlusionTexture": {
        "index": 4,
        "strength": 0.20000000000000001,
        "texCoord": 0
      },
      "pbrMetallicRoughness": {
        "baseColorFactor": [
          1,
          1,
          1,
          1
        ],
        "baseColorTexture": {
          "index": 3,
          "texCoord": 0
        },
        "metallicFactor": 0,
        "metallicRoughnessTexture": {
          "index": 4,
          "texCoord": 0
        },
        "roughnessFactor": 1
      }
    }
  ],
  "meshes": [
    {
      "name": "wall_large_wall_large_0",
      "primitives": [
        {
          "attributes": {
            "NORMAL": 1,
            "POSITION": 0,
            "TANGENT": 2,
            "TEXCOORD_0": 3,
            "TEXCOORD_1": 4,
            "TEXCOORD_2": 5
          },
          "indices": 6,
          "material": 0,
          "mode": 4
        }
      ]
    },
    {
      "name": "wall_large_wall_large_hide_0",
      "primitives": [
        {
          "attributes": {
            "NORMAL": 8,
            "POSITION": 7,
            "TANGENT": 9,
            "TEXCOORD_0": 10,
            "TEXCOORD_1": 11,
            "TEXCOORD_2": 12
          },
          "indices": 13,
          "material": 1,
          "mode": 4
        }
      ]
    }
  ],
  "nodes": [
    {
      "children": [
        1
      ],
      "name": "RootNode (gltf orientation matrix)",
      "rotation": [
        -0.70710678118654746,
        -0,
        -0,
        0.70710678118654757
      ]
    },
    {
      "children": [
        2
      ],
      "matrix": [
        1.0222978591918945,
        0,
        0,
        0,
        0,
        1.0222978591918945,
        0,
        0,
        0,
        0,
        1.0222978591918945,
        0,
        0,
        0,
        0,
        1
      ],
      "name": "RootNode (model correction matrix)"
    },
    {
      "children": [
        3
      ],
      "matrix": [
        1,
        0,
        0,
        0,
        0,
        0,
        1,
        0,
        0,
        -1,
        0,
        0,
        0,
        0,
        0,
        1
      ],
      "name": "40a98efb01c14a2ab4ef35ab0c873e6f.fbx"
    },
    {
      "children": [
        4
      ],
      "name": "RootNode"
    },
    {
      "children": [
        5,
        6
      ],
      "matrix": [
        1,
        0,
        0,
        0,
        0,
        2.2204460492503131e-16,
        -1,
        0,
        0,
        1,
        2.2204460492503131e-16,
        0,
        0,
        0,
        0,
        1
      ],
      "name": "wall_large"
    },
    {
      "mesh": 0,
      "name": "wall_large_wall_large_0"
    },
    {
      "mesh": 1,
      "name": "wall_large_wall_large_hide_0"
    }
  ],
  "samplers": [
    {
      "magFilter": 9729,
      "minFilter": 9987,
      "wrapS": 10497,
      "wrapT": 10497
    }
  ],
  "scene": 0,
  "scenes": [
    {
      "name": "OSG_Scene",
      "nodes": [
        0
      ]
    }
  ],
  "textures": [
    {
      "sampler": 0,
      "source": 0
    },
    {
      "sampler": 0,
      "source": 1
    },
    {
      "sampler": 0,
      "source": 2
    },
    {
      "sampler": 0,
      "source": 3
    },
    {
      "sampler": 0,
      "source": 4
    },
    {
      "sampler": 0,
      "source": 5
    }
  ]
}

